<svg width="244" height="36" viewBox="0 0 244 36" fill="none" xmlns="http://www.w3.org/2000/svg">
<path d="M0 0.929317V1.85501L8.93959 1.93436L17.9056 2.01371L20.2066 3.15099C21.4762 3.78575 22.587 4.47341 22.6663 4.71145C22.7457 4.92304 22.587 5.31977 22.2961 5.6107C21.7935 6.13967 21.7671 6.13967 21.0794 5.58425C20.7092 5.29332 19.5983 4.65855 18.5933 4.18248L16.7948 3.33613L8.41062 3.25678L0 3.17744V19.5755V36H7.61716C11.796 36 15.8691 35.8942 16.6625 35.762C18.7255 35.4181 20.8943 34.5453 22.7457 33.3287L24.3326 32.2443L25.9195 33.3287C27.7709 34.5453 29.9397 35.4181 32.0027 35.762C32.7961 35.8942 36.8692 36 41.0745 36H48.6652V19.5755V3.17744L40.281 3.25678L31.8704 3.33613L30.0719 4.18248C29.0669 4.65855 27.956 5.29332 27.5858 5.58425C26.8981 6.13967 26.8717 6.13967 26.3691 5.6107C26.0782 5.31977 25.9195 4.92304 25.9989 4.71145C26.0782 4.47341 27.189 3.78575 28.4586 3.15099L30.7596 2.01371L39.7256 1.93436L48.6652 1.85501V0.929317V0.00362015L39.6198 0.0829659C29.4107 0.162312 29.4107 0.162312 25.946 2.41043L24.3326 3.46837L22.7192 2.41043C19.2545 0.162312 19.2545 0.162312 9.07183 0.0829659L0 0.00362015V0.929317ZM16.7948 5.45201C18.4346 5.90163 20.6298 7.09181 20.6298 7.59433C20.6298 7.72658 20.4711 8.07041 20.286 8.30844C19.995 8.73162 19.8364 8.70517 18.3817 7.91171L16.7948 7.03892L10.1298 6.95957L3.4383 6.88022V19.7077V32.5617H4.364H5.2897V20.6599V8.75807H10.5265C15.6046 8.75807 15.8162 8.78452 17.1122 9.41928C19.0694 10.3979 19.1222 10.5037 18.461 12.4873C17.6411 14.9206 17.6411 20.8186 18.4346 23.2254L18.99 24.8652L18.4081 25.3942C17.2444 26.505 15.6046 27.0075 13.1713 27.0075H10.8439V27.9332V28.8589H13.1978C15.7368 28.8589 17.1122 28.4886 18.6991 27.4307C19.9157 26.5843 19.9422 26.5843 20.3124 27.4042C20.5769 27.9597 20.524 28.1184 19.8364 28.5944C19.4396 28.8854 18.461 29.4143 17.6676 29.7846C16.3716 30.3929 15.9484 30.4458 12.5101 30.4458H8.728V20.2632V10.0805H7.98744H7.22043L7.06174 15.4231C6.95595 18.3853 6.8766 23.3841 6.8766 26.5314V32.2972H11.6373C16.8741 32.2972 17.8792 32.0856 20.4711 30.4458C21.6878 29.6788 21.7671 29.6524 22.2432 30.0755C23.0102 30.7632 22.8779 31.0541 21.3439 31.9798C18.3552 33.7783 17.7734 33.8841 9.38921 33.8841H1.85139V19.4697V5.05528H8.54286C13.7268 5.05528 15.5782 5.13462 16.7948 5.45201ZM46.8138 19.4697V33.8841H39.276C30.8918 33.8841 30.31 33.7783 27.3213 31.9798C25.7873 31.0541 25.655 30.7632 26.422 30.0755C26.8981 29.6524 26.9774 29.6788 28.1941 30.4458C30.786 32.0856 31.7911 32.2972 37.0279 32.2972H41.7886V26.7959C41.7886 23.7544 41.7092 18.7556 41.6035 15.6876L41.4448 10.0805H40.6778H39.9372V20.2632V30.4458H36.1815C32.7168 30.4458 32.2936 30.3929 30.9976 29.7846C30.2042 29.4143 29.2256 28.8854 28.8288 28.5944C28.1412 28.1184 28.0883 27.9597 28.3528 27.4042C28.723 26.5843 28.7495 26.5843 29.9661 27.4307C31.553 28.4886 32.9284 28.8589 35.4674 28.8589H37.8213V27.9332V27.0075H35.5203C33.0606 27.0075 31.4208 26.505 30.2571 25.3942L29.6752 24.8652L30.2306 23.2254C31.0241 20.8186 31.0241 14.9206 30.2042 12.4873C29.5429 10.5037 29.5958 10.3979 31.553 9.41928C32.849 8.78452 33.0606 8.75807 38.1387 8.75807H43.3755V20.6599V32.5617H44.3012H45.2269V19.7077V6.88022L38.5619 6.95957L31.8704 7.03892L30.2835 7.91171C28.8288 8.70517 28.6701 8.73162 28.3792 8.30844C27.8502 7.59433 27.956 7.3563 29.1727 6.58929C31.2357 5.26687 32.5581 5.08173 40.0165 5.08173L46.8138 5.05528V19.4697ZM24.9674 6.88022C25.3905 7.32985 25.3641 7.40919 24.8616 7.99106L24.3326 8.62582L23.8036 7.99106C23.3011 7.40919 23.2747 7.32985 23.6978 6.88022C23.9623 6.58929 24.2268 6.3777 24.3326 6.3777C24.4384 6.3777 24.7029 6.58929 24.9674 6.88022ZM22.825 9.63087C23.1689 10.1598 23.1689 10.3185 22.825 10.9533L22.4548 11.6938L21.9258 11.0326C21.5026 10.4772 21.4762 10.2656 21.7142 9.71021C22.1109 8.86386 22.2961 8.86386 22.825 9.63087ZM26.951 9.71021C27.189 10.2656 27.1626 10.4772 26.7394 11.0326L26.2104 11.6938L25.8402 10.9533C25.4963 10.3185 25.4963 10.1598 25.8402 9.63087C26.3691 8.86386 26.5543 8.86386 26.951 9.71021ZM21.291 17.6448C21.2381 21.6649 21.0001 23.0402 20.3918 23.0402C19.5719 23.0402 19.3603 15.8727 20.1008 13.3866C20.4182 12.3551 20.4182 12.3551 20.8678 12.884C21.2646 13.3601 21.3175 14.0478 21.291 17.6448ZM24.8351 13.3337C25.0467 13.9155 25.0467 14.4709 24.8616 15.1057C24.5177 16.2959 24.5177 19.2052 24.888 20.4747C25.0732 21.2153 25.0732 21.7178 24.8351 22.379C24.65 22.8816 24.4119 23.3047 24.3326 23.3047C24.2533 23.3047 24.0152 22.8816 23.8301 22.379C23.592 21.7178 23.592 21.2153 23.7772 20.4747C24.1475 19.2052 24.1475 16.2959 23.8036 15.1057C23.5391 14.1536 23.883 12.4609 24.3326 12.4609C24.4648 12.4609 24.6764 12.8576 24.8351 13.3337ZM28.723 14.2329C29.1727 16.1107 29.1991 19.5226 28.8024 21.5327C28.4586 23.1725 28.2205 23.3576 27.7445 22.4584C27.2419 21.5327 27.2155 13.8362 27.6916 13.0427C28.1941 12.2493 28.2734 12.3551 28.723 14.2329ZM22.8515 24.5743C23.1953 25.2355 23.1689 25.3677 22.6134 26.0554L22.0051 26.8224L21.6084 26.0554C21.2381 25.3677 21.2646 25.2355 21.7406 24.5743C22.0316 24.1511 22.2961 23.8337 22.349 23.8337C22.4283 23.8337 22.6399 24.1511 22.8515 24.5743ZM27.0568 26.0289L26.6601 26.8224L26.0518 26.0554C25.4699 25.3413 25.4699 25.2355 25.8402 24.5214L26.2633 23.7279L26.8717 24.4949C27.4271 25.209 27.4535 25.2884 27.0568 26.0289ZM24.9674 27.6952C25.4434 28.3828 25.4434 28.3828 24.888 28.9383L24.3326 29.4937L23.7772 28.9383C23.2218 28.3828 23.2218 28.3828 23.6978 27.6952C23.9888 27.3249 24.2533 27.034 24.3326 27.034C24.4119 27.034 24.6764 27.3249 24.9674 27.6952Z" fill="white"/>
<path d="M152.793 1.1408C152.158 2.19874 150.756 4.79069 150.756 4.92293C150.756 5.00228 151.814 5.05518 153.084 5.05518H155.411L156.919 2.96575C157.739 1.80201 158.426 0.796971 158.426 0.717625C158.426 0.63828 157.236 0.558934 155.782 0.558934C153.348 0.558934 153.11 0.611831 152.793 1.1408Z" fill="white"/>
<path d="M61.0959 18.6761V30.9746H67.3907C75.7484 30.9746 78.2346 30.525 80.2446 28.6471C81.8845 27.1131 81.9902 26.5577 81.9902 18.6761C81.9902 10.6093 81.8845 10.1068 79.9802 8.5463C77.9436 6.8536 75.1665 6.40397 66.8617 6.37752H61.0959V18.6761ZM74.955 11.006C75.431 11.244 75.96 11.7201 76.1451 12.0904C76.6212 13.1219 76.5419 24.4418 76.0658 25.394C75.431 26.5842 74.5318 26.8486 70.4323 26.9544L66.6501 27.0602V18.8877C66.6501 14.3914 66.7295 10.6093 66.8617 10.477C67.2055 10.1068 73.9764 10.5564 74.955 11.006Z" fill="white"/>
<path d="M87.28 18.6761V30.9746H90.0571H92.8342V18.6761V6.37753H90.0571H87.28V18.6761Z" fill="white"/>
<path d="M101.324 17.4338C99.2347 23.3583 97.304 28.7538 97.0395 29.4414L96.537 30.7109H99.4199H102.303L102.832 29.3356C103.44 27.7752 106.191 19.153 107.196 15.6353L107.83 13.3872L108.545 15.7675C108.941 17.0635 110.184 20.9514 111.295 24.3633L113.332 30.5787L116.188 30.658C117.749 30.6845 119.018 30.658 119.018 30.5522C119.018 30.4465 117.14 25.0245 114.866 18.5182L110.713 6.64282H107.936H105.133L101.324 17.4338Z" fill="white"/>
<path d="M123.514 18.8083V30.9746H132.375H141.235V28.991V27.0073H135.152H129.068V16.8247V6.64201H126.291H123.514V18.8083Z" fill="white"/>
<path d="M144.938 18.8083V30.9746H154.195H163.452V28.991V27.0073H156.972H150.492V23.8335V20.6597H155.782H161.071V18.6761V16.6924H155.782H150.492V13.5186V10.3448H156.707H162.923V8.4934V6.64201H153.93H144.938V18.8083Z" fill="white"/>
<path d="M165.303 8.62565V10.6093H168.477H171.651V20.7919V30.9746H174.428H177.205V20.7919V10.6093H180.379H183.553V8.62565V6.64201H174.428H165.303V8.62565Z" fill="white"/>
<path d="M186.726 18.8083V30.9746H189.636H192.545V18.8083V6.64201H189.636H186.726V18.8083Z" fill="white"/>
<path d="M202.992 7.01241C201.194 7.46203 200.189 8.0439 199.236 9.12829C197.808 10.7416 197.702 11.4029 197.702 18.9407C197.702 25.6057 197.729 25.8437 198.311 27.0604C199.633 29.7581 201.855 30.7367 207.118 30.9218C214.206 31.1599 217.645 29.5201 218.464 25.4999C218.914 23.3311 218.888 23.3047 215.846 23.3047H213.228L213.043 24.2833C212.672 26.3198 211.323 27.0868 208.15 27.1133C205.584 27.1133 204.182 26.6107 203.68 25.5263C203.309 24.68 203.283 12.6459 203.653 11.9054C204.209 10.9003 205.478 10.4772 208.15 10.4772C211.35 10.4772 212.328 10.9532 212.91 12.8046L213.307 14.0477H216.031C219.152 14.0477 219.099 14.1006 218.306 11.3764C217.777 9.60436 216.19 7.991 214.338 7.30334C212.646 6.66858 205.029 6.48344 202.992 7.01241Z" fill="white"/>
<path d="M225.156 18.5975L220.924 30.5787L223.701 30.658C225.764 30.7109 226.558 30.6316 226.717 30.3936C226.981 29.9439 230.419 19.3381 231.319 16.1114C231.715 14.6832 232.086 13.5723 232.165 13.6252C232.218 13.6781 232.72 15.2915 233.276 17.1693C233.831 19.0736 235.021 22.8822 235.947 25.6593L237.587 30.7109H240.496C242.691 30.7109 243.353 30.6316 243.273 30.3936C243.194 30.2084 241.316 24.7865 239.068 18.3595L234.995 6.64282H232.191H229.414L225.156 18.5975Z" fill="white"/>
</svg>
